<svg id="visual" viewBox="0 0 900 600" width="900" height="600" xmlns="http://www.w3.org/2000/svg" xmlns:xlink="http://www.w3.org/1999/xlink" version="1.1"><path d="M0 85L13.7 84C27.3 83 54.7 81 82 76C109.3 71 136.7 63 163.8 64C191 65 218 75 245.2 77C272.3 79 299.7 73 327 69C354.3 65 381.7 63 409 68C436.3 73 463.7 85 491 82C518.3 79 545.7 61 573 52C600.3 43 627.7 43 654.8 50C682 57 709 71 736.2 77C763.3 83 790.7 81 818 78C845.3 75 872.7 71 886.3 69L900 67L900 0L886.3 0C872.7 0 845.3 0 818 0C790.7 0 763.3 0 736.2 0C709 0 682 0 654.8 0C627.7 0 600.3 0 573 0C545.7 0 518.3 0 491 0C463.7 0 436.3 0 409 0C381.7 0 354.3 0 327 0C299.7 0 272.3 0 245.2 0C218 0 191 0 163.8 0C136.7 0 109.3 0 82 0C54.7 0 27.3 0 13.7 0L0 0Z" fill="#ffffff"></path><path d="M0 199L13.7 195C27.3 191 54.7 183 82 176C109.3 169 136.7 163 163.8 162C191 161 218 165 245.2 165C272.3 165 299.7 161 327 159C354.3 157 381.7 157 409 155C436.3 153 463.7 149 491 144C518.3 139 545.7 133 573 136C600.3 139 627.7 151 654.8 160C682 169 709 175 736.2 173C763.3 171 790.7 161 818 151C845.3 141 872.7 131 886.3 126L900 121L900 65L886.3 67C872.7 69 845.3 73 818 76C790.7 79 763.3 81 736.2 75C709 69 682 55 654.8 48C627.7 41 600.3 41 573 50C545.7 59 518.3 77 491 80C463.7 83 436.3 71 409 66C381.7 61 354.3 63 327 67C299.7 71 272.3 77 245.2 75C218 73 191 63 163.8 62C136.7 61 109.3 69 82 74C54.7 79 27.3 81 13.7 82L0 83Z" fill="#ffffff"></path><path d="M0 391L13.7 385C27.3 379 54.7 367 82 351C109.3 335 136.7 315 163.8 306C191 297 218 299 245.2 297C272.3 295 299.7 289 327 305C354.3 321 381.7 359 409 369C436.3 379 463.7 361 491 351C518.3 341 545.7 339 573 328C600.3 317 627.7 297 654.8 299C682 301 709 325 736.2 327C763.3 329 790.7 309 818 308C845.3 307 872.7 325 886.3 334L900 343L900 119L886.3 124C872.7 129 845.3 139 818 149C790.7 159 763.3 169 736.2 171C709 173 682 167 654.8 158C627.7 149 600.3 137 573 134C545.7 131 518.3 137 491 142C463.7 147 436.3 151 409 153C381.7 155 354.3 155 327 157C299.7 159 272.3 163 245.2 163C218 163 191 159 163.8 160C136.7 161 109.3 167 82 174C54.7 181 27.3 189 13.7 193L0 197Z" fill="#ffffff"></path><path d="M0 511L13.7 500C27.3 489 54.7 467 82 443C109.3 419 136.7 393 163.8 382C191 371 218 375 245.2 374C272.3 373 299.7 367 327 388C354.3 409 381.7 457 409 473C436.3 489 463.7 473 491 461C518.3 449 545.7 441 573 435C600.3 429 627.7 425 654.8 430C682 435 709 449 736.2 444C763.3 439 790.7 415 818 422C845.3 429 872.7 467 886.3 486L900 505L900 341L886.3 332C872.7 323 845.3 305 818 306C790.7 307 763.3 327 736.2 325C709 323 682 299 654.8 297C627.7 295 600.3 315 573 326C545.7 337 518.3 339 491 349C463.7 359 436.3 377 409 367C381.7 357 354.3 319 327 303C299.7 287 272.3 293 245.2 295C218 297 191 295 163.8 304C136.7 313 109.3 333 82 349C54.7 365 27.3 377 13.7 383L0 389Z" fill="#f6f6f6"></path><path d="M0 601L13.7 601C27.3 601 54.7 601 82 601C109.3 601 136.7 601 163.8 601C191 601 218 601 245.2 601C272.3 601 299.7 601 327 601C354.3 601 381.7 601 409 601C436.3 601 463.7 601 491 601C518.3 601 545.7 601 573 601C600.3 601 627.7 601 654.8 601C682 601 709 601 736.2 601C763.3 601 790.7 601 818 601C845.3 601 872.7 601 886.3 601L900 601L900 503L886.3 484C872.7 465 845.3 427 818 420C790.7 413 763.3 437 736.2 442C709 447 682 433 654.8 428C627.7 423 600.3 427 573 433C545.7 439 518.3 447 491 459C463.7 471 436.3 487 409 471C381.7 455 354.3 407 327 386C299.7 365 272.3 371 245.2 372C218 373 191 369 163.8 380C136.7 391 109.3 417 82 441C54.7 465 27.3 487 13.7 498L0 509Z" fill="#eeeeee"></path></svg>