<svg id="visual" viewBox="0 0 900 600" width="900" height="600" xmlns="http://www.w3.org/2000/svg" xmlns:xlink="http://www.w3.org/1999/xlink" version="1.1"><rect x="0" y="0" width="900" height="600" fill="#fff"></rect><path d="M0 420L21.5 424.5C43 429 86 438 128.8 432.7C171.7 427.3 214.3 407.7 257.2 397C300 386.3 343 384.7 385.8 392.3C428.7 400 471.3 417 514.2 421.2C557 425.3 600 416.7 642.8 413.3C685.7 410 728.3 412 771.2 411C814 410 857 406 878.5 404L900 402L900 601L878.5 601C857 601 814 601 771.2 601C728.3 601 685.7 601 642.8 601C600 601 557 601 514.2 601C471.3 601 428.7 601 385.8 601C343 601 300 601 257.2 601C214.3 601 171.7 601 128.8 601C86 601 43 601 21.5 601L0 601Z" fill="#438fda"></path><path d="M0 461L21.5 455C43 449 86 437 128.8 431.7C171.7 426.3 214.3 427.7 257.2 435.7C300 443.7 343 458.3 385.8 460.2C428.7 462 471.3 451 514.2 447.2C557 443.3 600 446.7 642.8 452.2C685.7 457.7 728.3 465.3 771.2 466.7C814 468 857 463 878.5 460.5L900 458L900 601L878.5 601C857 601 814 601 771.2 601C728.3 601 685.7 601 642.8 601C600 601 557 601 514.2 601C471.3 601 428.7 601 385.8 601C343 601 300 601 257.2 601C214.3 601 171.7 601 128.8 601C86 601 43 601 21.5 601L0 601Z" fill="#4376bc"></path><path d="M0 508L21.5 506.8C43 505.7 86 503.3 128.8 496.7C171.7 490 214.3 479 257.2 472.2C300 465.3 343 462.7 385.8 461.7C428.7 460.7 471.3 461.3 514.2 467.8C557 474.3 600 486.7 642.8 493.7C685.7 500.7 728.3 502.3 771.2 501.3C814 500.3 857 496.7 878.5 494.8L900 493L900 601L878.5 601C857 601 814 601 771.2 601C728.3 601 685.7 601 642.8 601C600 601 557 601 514.2 601C471.3 601 428.7 601 385.8 601C343 601 300 601 257.2 601C214.3 601 171.7 601 128.8 601C86 601 43 601 21.5 601L0 601Z" fill="#405e9f"></path><path d="M0 535L21.5 535.2C43 535.3 86 535.7 128.8 535.5C171.7 535.3 214.3 534.7 257.2 527.3C300 520 343 506 385.8 505.5C428.7 505 471.3 518 514.2 524.5C557 531 600 531 642.8 529.8C685.7 528.7 728.3 526.3 771.2 527C814 527.7 857 531.3 878.5 533.2L900 535L900 601L878.5 601C857 601 814 601 771.2 601C728.3 601 685.7 601 642.8 601C600 601 557 601 514.2 601C471.3 601 428.7 601 385.8 601C343 601 300 601 257.2 601C214.3 601 171.7 601 128.8 601C86 601 43 601 21.5 601L0 601Z" fill="#3a4782"></path><path d="M0 543L21.5 542.7C43 542.3 86 541.7 128.8 546C171.7 550.3 214.3 559.7 257.2 561.2C300 562.7 343 556.3 385.8 553.2C428.7 550 471.3 550 514.2 545.7C557 541.3 600 532.7 642.8 531.7C685.7 530.7 728.3 537.3 771.2 543.5C814 549.7 857 555.3 878.5 558.2L900 561L900 601L878.5 601C857 601 814 601 771.2 601C728.3 601 685.7 601 642.8 601C600 601 557 601 514.2 601C471.3 601 428.7 601 385.8 601C343 601 300 601 257.2 601C214.3 601 171.7 601 128.8 601C86 601 43 601 21.5 601L0 601Z" fill="#313166"></path></svg>