<svg id="visual" viewBox="0 0 900 600" width="900" height="600" xmlns="http://www.w3.org/2000/svg" xmlns:xlink="http://www.w3.org/1999/xlink" version="1.1"><rect x="0" y="0" width="900" height="600" fill="#fff"></rect><defs><linearGradient id="grad1_0" x1="33.3%" y1="100%" x2="100%" y2="0%"><stop offset="20%" stop-color="#ffffff" stop-opacity="1"></stop><stop offset="80%" stop-color="#ffffff" stop-opacity="1"></stop></linearGradient></defs><defs><linearGradient id="grad2_0" x1="0%" y1="100%" x2="66.7%" y2="0%"><stop offset="20%" stop-color="#ffffff" stop-opacity="1"></stop><stop offset="80%" stop-color="#ffffff" stop-opacity="1"></stop></linearGradient></defs><g transform="translate(900, 600)"><path d="M-324.5 0C-312.7 -54.5 -301 -109.1 -275.4 -159C-249.8 -208.9 -210.4 -254.2 -162.2 -281C-114 -307.8 -57 -316.2 0 -324.5L0 0Z" fill="#2C2B6F"></path></g><g transform="translate(0, 0)"><path d="M324.5 0C315.9 56.6 307.3 113.1 281 162.2C254.7 211.4 210.8 253.1 161 278.9C111.2 304.7 55.6 314.6 0 324.5L0 0Z" fill="#2C2B6F"></path></g></svg>