<svg id="visual" viewBox="0 0 960 540" width="960" height="540" xmlns="http://www.w3.org/2000/svg" xmlns:xlink="http://www.w3.org/1999/xlink" version="1.1"><rect x="0" y="0" width="960" height="540" fill="#fff"></rect><path d="M0 318L22.8 319.7C45.7 321.3 91.3 324.7 137 321.3C182.7 318 228.3 308 274 287.8C319.7 267.7 365.3 237.3 411.2 210.8C457 184.3 503 161.7 548.8 173.7C594.7 185.7 640.3 232.3 686 251.2C731.7 270 777.3 261 823 242C868.7 223 914.3 194 937.2 179.5L960 165L960 0L937.2 0C914.3 0 868.7 0 823 0C777.3 0 731.7 0 686 0C640.3 0 594.7 0 548.8 0C503 0 457 0 411.2 0C365.3 0 319.7 0 274 0C228.3 0 182.7 0 137 0C91.3 0 45.7 0 22.8 0L0 0Z" fill="#eef1f4" stroke-linecap="round" stroke-linejoin="miter"></path></svg>